<?xml version="1.0" encoding="utf-8"?>
<!-- Generator: Adobe Illustrator 24.2.3, SVG Export Plug-In . SVG Version: 6.00 Build 0)  -->
<svg version="1.1" id="Layer_1" xmlns="http://www.w3.org/2000/svg" xmlns:xlink="http://www.w3.org/1999/xlink" x="0px" y="0px"
	 viewBox="0 0 135 40" style="enable-background:new 0 0 135 40;" xml:space="preserve">
<style type="text/css">
	.st0{fill:#FFFFFF;}
	.st1{fill:#A6A6A6;}
</style>
<path d="M134,35.3c0,2.1-1.7,3.8-3.8,3.8H4.7c-2.1,0-3.8-1.7-3.8-3.8V4.7c0-2.1,1.7-3.8,3.8-3.8h125.5c2.1,0,3.8,1.7,3.8,3.8V35.3z"
	/>
<path class="st0" d="M30.1,19.8c0-3.2,2.6-4.8,2.8-4.9c-1.5-2.2-3.9-2.5-4.7-2.5c-2-0.2-3.9,1.2-4.9,1.2c-1,0-2.6-1.2-4.2-1.1
	c-2.1,0-4.1,1.3-5.2,3.2c-2.3,3.9-0.6,9.7,1.6,12.9c1.1,1.5,2.4,3.3,4,3.2c1.6-0.1,2.2-1,4.2-1s2.5,1,4.2,1c1.8,0,2.9-1.6,3.9-3.1
	c1.3-1.8,1.8-3.5,1.8-3.6C33.5,24.9,30.2,23.6,30.1,19.8L30.1,19.8z M26.9,10.3c0.9-1.1,1.5-2.6,1.3-4.1c-1.3,0.1-2.8,0.9-3.8,1.9
	c-0.8,0.9-1.5,2.5-1.3,3.9C24.6,12.2,26,11.4,26.9,10.3L26.9,10.3z M53.7,31.5h-2.3l-1.2-3.9h-4.3l-1.2,3.9h-2.2l4.3-13.3h2.6
	L53.7,31.5L53.7,31.5z M49.8,26l-1.1-3.5c-0.1-0.4-0.3-1.2-0.7-2.5h0c-0.1,0.6-0.3,1.4-0.6,2.5L46.2,26C46.2,26,49.8,26,49.8,26z
	 M64.7,26.6c0,1.6-0.4,2.9-1.3,3.9c-0.8,0.8-1.8,1.3-2.9,1.3c-1.3,0-2.2-0.5-2.7-1.4h0v5h-2.1V25.1c0-1,0-2.1-0.1-3.2h1.9l0.1,1.5h0
	c0.7-1.1,1.8-1.7,3.2-1.7c1.1,0,2.1,0.5,2.8,1.4C64.3,24,64.7,25.2,64.7,26.6L64.7,26.6z M62.5,26.7c0-0.9-0.2-1.7-0.6-2.3
	c-0.5-0.6-1.1-1-1.8-1c-0.5,0-1,0.2-1.4,0.5c-0.4,0.4-0.7,0.8-0.8,1.4c-0.1,0.3-0.1,0.5-0.1,0.6v1.6c0,0.7,0.2,1.3,0.6,1.8
	c0.4,0.5,1,0.7,1.7,0.7c0.8,0,1.4-0.3,1.9-0.9S62.5,27.7,62.5,26.7L62.5,26.7z M75.7,26.6c0,1.6-0.4,2.9-1.3,3.9
	c-0.8,0.8-1.8,1.3-2.9,1.3c-1.3,0-2.2-0.5-2.7-1.4h0v5h-2.1V25.1c0-1,0-2.1-0.1-3.2h1.9l0.1,1.5h0c0.7-1.1,1.8-1.7,3.2-1.7
	c1.1,0,2.1,0.5,2.8,1.4C75.3,24,75.7,25.2,75.7,26.6L75.7,26.6z M73.5,26.7c0-0.9-0.2-1.7-0.6-2.3c-0.5-0.6-1.1-1-1.9-1
	c-0.5,0-1,0.2-1.4,0.5c-0.4,0.4-0.7,0.8-0.8,1.4c-0.1,0.3-0.1,0.5-0.1,0.6v1.6c0,0.7,0.2,1.3,0.6,1.8c0.4,0.5,1,0.7,1.7,0.7
	c0.8,0,1.4-0.3,1.9-0.9S73.5,27.7,73.5,26.7L73.5,26.7z M88,27.8c0,1.1-0.4,2-1.2,2.8c-0.9,0.8-2.1,1.2-3.6,1.2
	c-1.4,0-2.6-0.3-3.4-0.8l0.5-1.8c0.9,0.6,2,0.8,3.1,0.8c0.8,0,1.4-0.2,1.9-0.5s0.7-0.9,0.7-1.5c0-0.5-0.2-1-0.5-1.4s-1-0.7-1.8-1
	c-2.3-0.9-3.5-2.1-3.5-3.8c0-1.1,0.4-2,1.2-2.7c0.8-0.7,1.9-1,3.3-1c1.2,0,2.2,0.2,3,0.6L87,20.4c-0.8-0.4-1.6-0.6-2.6-0.6
	c-0.8,0-1.3,0.2-1.8,0.5c-0.4,0.3-0.5,0.7-0.5,1.2c0,0.5,0.2,1,0.6,1.3c0.4,0.3,1,0.7,1.9,1c1.2,0.5,2,1,2.5,1.6
	C87.8,26.1,88,26.9,88,27.8L88,27.8z M95.1,23.5h-2.4v4.7c0,1.2,0.4,1.8,1.2,1.8c0.4,0,0.7,0,0.9-0.1l0.1,1.6
	c-0.4,0.2-1,0.2-1.7,0.2c-0.8,0-1.5-0.3-2-0.8c-0.5-0.5-0.7-1.4-0.7-2.6v-4.8h-1.4v-1.6h1.4v-1.8l2.1-0.6v2.4h2.3L95.1,23.5
	L95.1,23.5z M105.7,26.6c0,1.5-0.4,2.7-1.3,3.6c-0.9,1-2.1,1.5-3.5,1.5c-1.4,0-2.5-0.5-3.3-1.4c-0.8-0.9-1.2-2.1-1.2-3.5
	c0-1.5,0.4-2.7,1.3-3.7c0.8-0.9,2-1.4,3.5-1.4c1.4,0,2.5,0.5,3.4,1.4C105.3,24,105.7,25.2,105.7,26.6L105.7,26.6z M103.5,26.7
	c0-0.9-0.2-1.6-0.6-2.3c-0.4-0.8-1.1-1.1-1.9-1.1c-0.9,0-1.5,0.4-2,1.1c-0.4,0.6-0.6,1.4-0.6,2.3c0,0.9,0.2,1.6,0.6,2.3
	c0.5,0.8,1.1,1.2,1.9,1.2c0.8,0,1.4-0.4,1.9-1.2C103.3,28.4,103.5,27.6,103.5,26.7L103.5,26.7z M112.6,23.8c-0.2,0-0.5-0.1-0.7-0.1
	c-0.8,0-1.3,0.3-1.7,0.9c-0.4,0.5-0.5,1.1-0.5,1.9v5h-2.1l0-6.6c0-1.1,0-2.1-0.1-3h1.8l0.1,1.9h0.1c0.2-0.6,0.6-1.1,1.1-1.5
	c0.5-0.3,1-0.5,1.5-0.5c0.2,0,0.4,0,0.5,0L112.6,23.8L112.6,23.8z M122.2,26.3c0,0.4,0,0.7-0.1,1h-6.4c0,1,0.3,1.7,0.9,2.2
	c0.6,0.4,1.2,0.7,2.1,0.7c0.9,0,1.8-0.1,2.6-0.5l0.3,1.5c-0.9,0.4-2,0.6-3.2,0.6c-1.5,0-2.7-0.4-3.5-1.3c-0.8-0.9-1.3-2.1-1.3-3.5
	c0-1.5,0.4-2.7,1.2-3.6c0.8-1,1.9-1.5,3.3-1.5s2.4,0.5,3.1,1.5C121.9,24,122.2,25,122.2,26.3L122.2,26.3z M120.1,25.7
	c0-0.6-0.1-1.2-0.4-1.6c-0.4-0.6-0.9-0.9-1.7-0.9c-0.7,0-1.2,0.3-1.7,0.9c-0.4,0.5-0.6,1-0.6,1.7C115.7,25.7,120.1,25.7,120.1,25.7z
	 M47.4,11.6c0,0.6-0.2,1-0.6,1.4c-0.4,0.4-1,0.6-1.8,0.6c-0.7,0-1.3-0.1-1.7-0.4l0.2-0.9c0.5,0.3,1,0.4,1.5,0.4
	c0.4,0,0.7-0.1,0.9-0.3c0.2-0.2,0.3-0.4,0.3-0.7c0-0.3-0.1-0.5-0.3-0.7c-0.2-0.2-0.5-0.3-0.9-0.5c-1.1-0.4-1.7-1-1.7-1.9
	c0-0.5,0.2-1,0.6-1.3C44.5,7,45,6.8,45.7,6.8c0.6,0,1.1,0.1,1.5,0.3L46.9,8c-0.4-0.2-0.8-0.3-1.2-0.3c-0.4,0-0.7,0.1-0.9,0.3
	c-0.2,0.2-0.3,0.4-0.3,0.6c0,0.2,0.1,0.5,0.3,0.6c0.2,0.1,0.5,0.3,1,0.5c0.5,0.2,1,0.5,1.2,0.8C47.3,10.8,47.4,11.2,47.4,11.6
	L47.4,11.6z M52.4,8.9l-0.2,0.8c-0.3-0.1-0.6-0.2-0.9-0.2c-0.5,0-0.8,0.1-1.1,0.5c-0.3,0.3-0.4,0.7-0.4,1.2c0,0.5,0.2,0.9,0.4,1.2
	c0.3,0.3,0.6,0.4,1.1,0.4c0.3,0,0.6-0.1,1-0.2l0.1,0.8c-0.3,0.1-0.8,0.2-1.3,0.2c-0.7,0-1.3-0.2-1.7-0.6c-0.4-0.4-0.6-1-0.6-1.8
	c0-0.7,0.2-1.3,0.7-1.8c0.5-0.5,1.1-0.7,1.9-0.7C51.7,8.6,52.1,8.7,52.4,8.9L52.4,8.9z M57.4,13.4h-0.9l-0.1-0.5h0
	c-0.3,0.4-0.8,0.6-1.4,0.6c-0.4,0-0.8-0.1-1.1-0.4c-0.2-0.2-0.4-0.6-0.4-0.9c0-0.6,0.2-1,0.7-1.3c0.5-0.3,1.2-0.4,2-0.4v-0.1
	c0-0.6-0.3-0.9-1-0.9c-0.5,0-0.9,0.1-1.2,0.4L53.8,9c0.4-0.3,1-0.4,1.6-0.4c1.2,0,1.8,0.6,1.8,1.9v1.7
	C57.3,12.8,57.3,13.2,57.4,13.4L57.4,13.4z M56.3,11.8v-0.7c-1.2,0-1.7,0.3-1.7,0.9c0,0.2,0.1,0.4,0.2,0.6c0.1,0.1,0.3,0.2,0.5,0.2
	c0.2,0,0.4-0.1,0.6-0.2c0.2-0.1,0.3-0.3,0.3-0.6C56.2,12,56.3,11.9,56.3,11.8L56.3,11.8z M61.6,9.6c-0.1,0-0.2,0-0.3,0
	c-0.3,0-0.7,0.2-0.8,0.4c-0.2,0.2-0.3,0.6-0.3,0.9v2.5h-1v-3.2c0-0.5,0-1,0-1.5H60l0,0.9h0c0.1-0.3,0.3-0.6,0.5-0.7
	c0.2-0.2,0.5-0.3,0.8-0.3c0.1,0,0.2,0,0.3,0L61.6,9.6L61.6,9.6L61.6,9.6z M64.1,7.3c0,0.2-0.1,0.3-0.2,0.5c-0.1,0.1-0.3,0.2-0.5,0.2
	c-0.2,0-0.3-0.1-0.4-0.2s-0.2-0.3-0.2-0.4c0-0.2,0.1-0.3,0.2-0.4c0.1-0.1,0.3-0.2,0.5-0.2s0.3,0.1,0.5,0.2C64.1,7,64.1,7.1,64.1,7.3
	L64.1,7.3z M64,13.4h-1V8.7h1V13.4z M69.2,8.9L69,9.7c-0.3-0.1-0.6-0.2-0.9-0.2c-0.4,0-0.8,0.1-1.1,0.5c-0.3,0.3-0.4,0.7-0.4,1.2
	c0,0.5,0.1,0.9,0.4,1.2c0.3,0.3,0.6,0.4,1.1,0.4c0.3,0,0.7-0.1,1-0.2l0.2,0.8c-0.3,0.1-0.8,0.2-1.3,0.2c-0.7,0-1.3-0.2-1.7-0.6
	c-0.4-0.4-0.7-1-0.7-1.8c0-0.7,0.2-1.3,0.7-1.8c0.4-0.5,1.1-0.7,1.8-0.7C68.5,8.6,68.9,8.7,69.2,8.9L69.2,8.9z M74.2,13.4h-0.9
	l-0.1-0.5h0c-0.3,0.4-0.8,0.6-1.4,0.6c-0.4,0-0.8-0.1-1.1-0.4c-0.2-0.2-0.4-0.6-0.4-0.9c0-0.6,0.2-1,0.7-1.3c0.5-0.3,1.2-0.4,2-0.4
	v-0.1c0-0.6-0.3-0.9-1-0.9c-0.5,0-0.9,0.1-1.2,0.4L70.7,9c0.4-0.3,1-0.4,1.6-0.4c1.2,0,1.9,0.6,1.9,1.9v1.7
	C74.1,12.8,74.1,13.2,74.2,13.4L74.2,13.4z M73.1,11.8v-0.7c-1.2,0-1.7,0.3-1.7,0.9c0,0.2,0.1,0.4,0.2,0.6c0.1,0.1,0.3,0.2,0.5,0.2
	c0.2,0,0.5-0.1,0.7-0.2c0.2-0.1,0.3-0.3,0.4-0.6L73.1,11.8L73.1,11.8z M81.7,12.1c0,0.4-0.2,0.8-0.5,1.1c-0.3,0.3-0.8,0.4-1.3,0.4
	c-0.5,0-1-0.1-1.4-0.3l0.2-0.8c0.4,0.2,0.8,0.3,1.2,0.3c0.5,0,0.8-0.2,0.8-0.6c0-0.2-0.1-0.3-0.2-0.4c-0.1-0.1-0.3-0.2-0.6-0.3
	c-0.8-0.3-1.3-0.8-1.3-1.4c0-0.4,0.2-0.8,0.5-1c0.3-0.3,0.7-0.4,1.2-0.4c0.5,0,0.9,0.1,1.2,0.3l-0.2,0.8c-0.3-0.2-0.6-0.3-1-0.3
	c-0.2,0-0.4,0-0.5,0.1s-0.2,0.2-0.2,0.4s0.1,0.3,0.2,0.4c0.1,0.1,0.3,0.2,0.6,0.3C81.3,11,81.7,11.5,81.7,12.1L81.7,12.1z
	 M87.3,13.4h-0.9l-0.1-0.7l0,0c-0.3,0.6-0.8,0.8-1.5,0.8c-0.4,0-0.8-0.1-1.1-0.4c-0.3-0.4-0.5-0.9-0.5-1.6V8.7h1.1v2.6
	c0,0.9,0.3,1.4,0.9,1.4c0.5,0,0.8-0.2,1-0.7c0.1-0.1,0.1-0.2,0.1-0.4V8.7h1.1v3.3C87.3,12.5,87.3,13,87.3,13.4L87.3,13.4z"/>
<path class="st1" d="M130.2,39c2.1,0,3.8-1.7,3.8-3.7V4.7c0-2-1.7-3.7-3.8-3.7H4.7C2.7,1,1,2.7,1,4.7l0,0v30.5c0,2,1.7,3.7,3.7,3.7
	H130.2z M130.2,40H4.7C2.1,40,0,37.9,0,35.3V4.7C0,2.1,2.1,0,4.7,0h125.5c2.6,0,4.8,2.1,4.8,4.7v30.5C135,37.9,132.8,40,130.2,40z"
	/>
</svg>
