<svg width="91" height="91" viewBox="0 0 91 91" fill="none" xmlns="http://www.w3.org/2000/svg">
<g clip-path="url(#clip0)">
<path d="M17.7141 17.7141C10.0404 25.3879 6.20459 34.6485 6.20459 45.5C6.20459 56.154 9.90191 65.2761 17.2965 72.8683C17.4391 73.0048 17.5777 73.1433 17.7141 73.2859C20.3624 75.9341 23.198 78.124 26.219 79.8555C31.6234 82.958 37.6369 84.602 44.2574 84.7853C44.671 84.7914 45.0865 84.7955 45.5001 84.7955C49.8452 84.7955 53.9397 84.1803 57.7837 82.9519C63.514 81.1124 68.6821 77.8897 73.2859 73.2859C80.9597 65.6122 84.7955 56.3516 84.7955 45.5C84.7955 45.1537 84.7914 44.8115 84.7853 44.4713C84.6366 37.8915 83.0497 31.9086 80.0287 26.5246C78.2707 23.3874 76.0218 20.45 73.2859 17.7141C72.2878 16.716 71.2652 15.785 70.2201 14.9233C63.1779 9.11151 54.9379 6.20459 45.5001 6.20459C39.456 6.20459 33.9029 7.39629 28.8367 9.77968C24.8236 11.6742 21.1161 14.3183 17.7141 17.7141Z" fill="#00575F"/>
<path d="M41.7025 46.4928C41.1464 46.2104 40.5512 46.1105 39.9211 46.1887L23.0629 48.3394C22.2417 48.448 21.5682 48.8304 21.0425 49.4908C20.5341 50.1599 20.3299 50.9073 20.4342 51.7284C20.5428 52.567 20.9252 53.2405 21.5856 53.7488C22.2547 54.2746 23.002 54.4831 23.8232 54.3788L36.8797 52.706L36.4017 57.051C36.3105 57.8808 36.5277 58.6195 37.0535 59.2669C37.5836 59.9316 38.2614 60.3053 39.0956 60.3965C39.9255 60.4878 40.6641 60.2705 41.3115 59.7448C41.9719 59.2147 42.3499 58.5369 42.4412 57.7027L43.3319 49.5343C43.3971 48.9086 43.2841 48.3177 42.9843 47.7528C42.6888 47.2097 42.2587 46.7883 41.7025 46.4928Z" fill="#E18252"/>
<path d="M34.5555 19.2719C33.9342 17.7078 33.339 16.6432 32.7741 16.0784C32.1963 15.5136 31.5141 15.2312 30.732 15.2312C29.9195 15.2181 29.2461 15.4918 28.7116 16.0567C28.1338 16.6346 27.8427 17.308 27.8427 18.0771L27.7992 44.4073C27.8122 45.1329 28.0469 45.7542 28.4944 46.2756L26.4957 70.3464C26.4653 71.5065 26.8737 72.4972 27.7123 73.3227C28.5509 74.1352 29.5459 74.5393 30.6886 74.5393C31.8747 74.5393 32.8741 74.1265 33.6866 73.301C34.5251 72.4885 34.9466 71.4978 34.9466 70.3247L32.7741 46.3842C33.3086 45.8498 33.8734 44.9504 34.4687 43.6904C37.0626 35.6827 37.093 27.5446 34.5555 19.2719Z" fill="#F4F0EA"/>
<path d="M37.1841 56.334C36.9712 56.0559 36.7235 55.8256 36.4454 55.6388C36.6279 55.5475 36.8017 55.4389 36.9668 55.3129C37.6446 54.7915 38.0357 54.1007 38.1399 53.2491C38.2573 52.4105 38.0574 51.6501 37.5317 50.968C37.0059 50.2858 36.3194 49.8861 35.4678 49.7731L23.8452 48.2741C23.0023 48.1655 22.2419 48.3784 21.5641 48.9042C20.8863 49.4255 20.4866 50.1077 20.3692 50.9463C20.265 51.8022 20.4735 52.5669 20.9993 53.2491C21.2165 53.5358 21.4641 53.7661 21.7379 53.9443C21.5597 54.0442 21.386 54.1615 21.2165 54.2918C20.5387 54.8132 20.139 55.4954 20.0217 56.334C19.9174 57.1899 20.1259 57.9546 20.6516 58.6368C21.0166 59.1104 21.4598 59.4449 21.9769 59.6361C21.6814 59.7317 21.399 59.8838 21.1296 60.0923C20.5561 60.5311 20.2259 61.1047 20.1303 61.8085C20.039 62.5255 20.2128 63.1728 20.6516 63.742C20.9992 64.1896 21.425 64.485 21.9334 64.6327C21.7335 64.7196 21.538 64.8326 21.3469 64.9803C20.8733 65.3453 20.5952 65.8232 20.5213 66.4142C20.4431 67.0094 20.5908 67.5438 20.9558 68.0218C21.3251 68.4954 21.8031 68.7691 22.3896 68.8473L33.9906 70.3463C34.5858 70.4245 35.1246 70.2768 35.5982 69.9118C36.0718 69.5468 36.3499 69.0689 36.4237 68.478C36.5019 67.8827 36.3542 67.3483 35.9892 66.8704C35.7242 66.5271 35.3983 66.2882 35.0116 66.1535C35.3245 66.0666 35.6243 65.9145 35.9023 65.6972C36.4759 65.2584 36.8061 64.6762 36.9017 63.9593C36.9929 63.2554 36.8191 62.6167 36.3803 62.0475C36.1065 61.6956 35.7807 61.4349 35.4026 61.2654C35.8371 61.1698 36.2412 60.9743 36.6192 60.6789C37.297 60.1575 37.6881 59.4666 37.7924 58.615C37.914 57.7765 37.7098 57.0161 37.1841 56.334Z" fill="#FF9966"/>
<path d="M66.708 53.6183C67.5466 53.6878 68.2853 53.4489 68.924 52.9014C69.5627 52.3539 69.9102 51.6587 69.9667 50.8158C70.0362 49.9903 69.7973 49.2604 69.2498 48.6216C68.7024 47.9829 68.0072 47.631 67.1643 47.5571L50.2191 46.2971C49.6065 46.258 49.0243 46.3927 48.4811 46.7099C47.9337 47.0271 47.5209 47.4659 47.2428 48.0351C46.9821 48.6043 46.9039 49.1995 47.0039 49.8165L48.3073 57.9198C48.4377 58.7497 48.8461 59.4057 49.5239 59.8967C50.2061 60.3964 50.9577 60.5745 51.7833 60.4398C52.6131 60.3095 53.2692 59.9011 53.7602 59.2233C54.2555 58.5411 54.438 57.7894 54.3033 56.9639L53.6081 52.6407L66.708 53.6183Z" fill="#E18252"/>
<path d="M67.186 29.9389L64.9918 15.9265L64.2097 16.0351L64.1228 31.2206L63.4493 31.3292L62.1893 16.2089H61.4941L61.0379 31.3944H60.4079L58.8654 16.3176H58.2137L58.0182 31.5465L57.323 31.4379L56.1933 16.3393L55.3678 16.2741L54.1946 30.4385C53.6168 34.8139 55.2157 38.0769 58.9958 40.2363C59.0522 40.2494 59.1044 40.2667 59.1479 40.2798L57.714 70.0642C57.7444 71.2373 58.192 72.2236 59.0609 73.0187C59.8865 73.8008 60.8858 74.1832 62.059 74.1701C63.219 74.1136 64.201 73.6705 65.0135 72.8449C65.7956 71.9629 66.1779 70.9332 66.1649 69.76L62.3848 40.3449C62.6021 40.2711 62.828 40.1929 63.0583 40.106C66.695 37.6728 68.0723 34.2838 67.186 29.9389Z" fill="#F4F0EA"/>
<path d="M70.0967 57.7243C70.592 57.0204 70.7571 56.247 70.5963 55.3997C70.4486 54.5655 70.0228 53.9007 69.3146 53.4011C69.1408 53.2881 68.9583 53.1882 68.7714 53.0969C69.0495 52.9057 69.2885 52.6581 69.4884 52.3583C69.9837 51.6501 70.1488 50.8767 69.988 50.0337C69.8403 49.1952 69.4145 48.5304 68.7063 48.0351C67.9981 47.5528 67.2247 47.3877 66.3817 47.5354L54.846 49.6644C54.0074 49.8252 53.3427 50.2597 52.8473 50.9679C52.3651 51.6761 52.1999 52.4495 52.3477 53.2924C52.5084 54.131 52.9429 54.7914 53.6511 55.2694C53.8163 55.391 53.9857 55.4953 54.1508 55.5735C53.9075 55.769 53.6816 56.008 53.4774 56.2904C52.9951 56.9943 52.83 57.7634 52.9777 58.5932C53.1385 59.4405 53.5729 60.1096 54.2812 60.5919C54.6766 60.8743 55.0893 61.0481 55.5195 61.1133C55.1588 61.3088 54.846 61.5912 54.5853 61.9605C54.1812 62.5515 54.0422 63.1988 54.1725 63.894C54.3029 64.6066 54.6635 65.1628 55.2588 65.5668C55.5455 65.771 55.841 65.9101 56.1495 65.9796C55.7845 66.1404 55.4804 66.3924 55.2371 66.74C54.8938 67.2396 54.7678 67.7827 54.8677 68.3693C54.985 68.9559 55.2892 69.4208 55.7802 69.7597C56.2798 70.1029 56.8229 70.2202 57.4095 70.1073L68.9235 68.0217C69.5101 67.9174 69.975 67.6133 70.3139 67.1093C70.6572 66.6226 70.7745 66.0882 70.6615 65.5017C70.5572 64.9151 70.2531 64.4502 69.7491 64.1113C69.5579 63.9722 69.3537 63.8723 69.1408 63.8071C69.6491 63.6246 70.0619 63.2988 70.3791 62.8295C70.7962 62.2386 70.9439 61.5869 70.8136 60.8743C70.6832 60.1748 70.3226 59.6186 69.7273 59.2015C69.4362 59.006 69.1321 58.8713 68.8149 58.7888C69.3363 58.5759 69.7621 58.2196 70.0967 57.7243Z" fill="#FF9966"/>
</g>
<defs>
<clipPath id="clip0">
<rect width="78.5909" height="78.5909" fill="white" transform="translate(6.20459 6.20459)"/>
</clipPath>
</defs>
</svg>
