<svg width="91" height="91" viewBox="0 0 91 91" fill="none" xmlns="http://www.w3.org/2000/svg">
<path fill-rule="evenodd" clip-rule="evenodd" d="M84.7955 45.1357C84.7268 34.4484 80.892 25.3058 73.2931 17.707C65.6245 10.0384 56.3612 6.20459 45.5 6.20459C34.6743 6.20459 25.4276 10.0384 17.759 17.707C10.1602 25.3058 6.30868 34.4484 6.20459 45.1357V45.5C6.20459 56.3602 10.0561 65.6256 17.759 73.2931C18.4179 73.9874 19.1122 74.6287 19.8409 75.2189C27.0577 81.6029 35.6111 84.7955 45.5 84.7955C55.389 84.7955 63.959 81.6029 71.2112 75.2189C71.9056 74.6287 72.5999 73.9874 73.2931 73.2931C80.9617 65.6256 84.7955 56.3602 84.7955 45.5V45.1357Z" fill="#00CCBE"/>
<path fill-rule="evenodd" clip-rule="evenodd" d="M18.459 69.6608C18.9587 71.8906 20.1422 73.6479 22.0621 74.9596C24.0086 76.2977 26.1126 76.7699 28.4267 76.4024L28.6637 76.3502L28.9001 76.2977C31.1882 75.8255 33.0031 74.6186 34.3181 72.6776C35.6331 70.7888 36.1065 68.7161 35.7646 66.4603L57.9089 62.3417L48.7831 13.4432L9.30664 20.7623L18.3541 69.3197C18.4067 69.4247 18.4327 69.5296 18.459 69.6608" fill="#F4F0EA"/>
<path fill-rule="evenodd" clip-rule="evenodd" d="M73.9468 65.3018C75.2517 63.3785 75.7215 61.2676 75.3822 58.9432L57.74 62.3098L35.7661 66.504C36.1053 68.8019 35.6095 70.9123 34.3307 72.8359C32.9997 74.8132 31.2251 76.0419 28.9546 76.5228L68.5707 68.989C70.8412 68.5078 72.642 67.2788 73.9468 65.3018" fill="#91A7A7"/>
<path d="M28.0134 76.5228L28.0151 76.5305L27.9221 76.5512L27.9204 76.5435L28.0134 76.5228Z" fill="#D29480"/>
<path fill-rule="evenodd" clip-rule="evenodd" d="M45.4998 53.3771L44.6267 48.6023L20.6816 53.1343L21.5548 57.9091L45.4998 53.3771Z" fill="#91A7A7"/>
<path fill-rule="evenodd" clip-rule="evenodd" d="M40.3294 26.4907L39.4563 21.7159L15.5112 26.248L16.3844 31.0228L40.3294 26.4907Z" fill="#91A7A7"/>
<path fill-rule="evenodd" clip-rule="evenodd" d="M38.261 45.0531L37.3904 40.3296L18.6133 43.8789L19.4836 48.6023L38.261 45.0531Z" fill="#91A7A7"/>
<path fill-rule="evenodd" clip-rule="evenodd" d="M34.125 36.5211L33.2514 32.0569L17.5796 34.8313L18.4535 39.2955L34.125 36.5211Z" fill="#91A7A7"/>
<path fill-rule="evenodd" clip-rule="evenodd" d="M49.636 36.0574L47.9252 26.8865L35.1587 29.3945L37.6865 38.2615L49.636 36.0574Z" fill="#91A7A7"/>
<path fill-rule="evenodd" clip-rule="evenodd" d="M60.5824 27.2645C58.8506 23.5399 55.9917 20.9251 52.1381 19.5308C48.3044 18.1439 44.4262 18.3335 40.6883 20.0754C36.977 21.8202 34.3723 24.684 32.983 28.5335C31.5931 32.3837 31.7655 36.2397 33.5121 39.995C35.2847 43.7059 38.1492 46.3026 42.0083 47.6871C45.8363 49.0721 49.6914 48.8824 53.4055 47.1363C57.1148 45.3925 59.7119 42.5545 61.1256 38.6936C62.5157 34.8429 62.3262 30.9833 60.5824 27.2645ZM37.8471 30.2915C38.7715 27.7281 40.4157 25.919 42.8785 24.7603C45.3792 23.5941 47.8384 23.4737 50.3809 24.3942C52.9422 25.3216 54.7429 26.9698 55.8974 29.4546C57.0651 31.9465 57.1844 34.3799 56.2664 36.9248C55.3252 39.497 53.6855 41.2901 51.2076 42.4559C48.7287 43.6222 46.3001 43.7418 43.76 42.8221C41.1821 41.8966 39.3701 40.2551 38.1833 37.776C37.0296 35.286 36.9227 32.8539 37.8471 30.2915Z" fill="#00575F"/>
<path d="M56.875 39.1528L58.2128 35.1592L69.2841 39.4382L67.9463 43.4319L56.875 39.1528Z" fill="#00575F"/>
<path d="M67.4776 45.9142C64.8346 44.9769 63.4637 42.1077 64.4156 39.5055C65.3676 36.9034 68.2819 35.5537 70.9249 36.4909L83.4989 40.9496C86.142 41.8868 87.5129 44.7561 86.561 47.3582C85.609 49.9604 82.6947 51.3101 80.0516 50.3729L67.4776 45.9142Z" fill="#FB5058"/>
</svg>
