<svg width="427" height="160" viewBox="0 0 427 160" fill="none" xmlns="http://www.w3.org/2000/svg">
<g clip-path="url(#clip0)">
<path fill-rule="evenodd" clip-rule="evenodd" d="M86.344 79.9506L86.5886 48.8546H58.866L58.9473 79.9506H86.344Z" fill="#00CCBE"/>
<path fill-rule="evenodd" clip-rule="evenodd" d="M285.095 99.6218V79.7874H318.685V48.6753H239.315V99.6218H285.095Z" fill="#00CCBE"/>
<path fill-rule="evenodd" clip-rule="evenodd" d="M297.742 95.0423L308.303 53.8252L298.427 39.7927L267.657 53.255L253.755 92.19L297.742 95.0423Z" fill="#FA5058"/>
<path fill-rule="evenodd" clip-rule="evenodd" d="M318.685 79.7875H301.148V151.693H333.19V49.0175H318.685V79.7875Z" fill="#007E8A"/>
<path fill-rule="evenodd" clip-rule="evenodd" d="M285.095 79.7874V99.6218H239.315V79.7874H221.779V151.693H301.148V79.7874H285.095Z" fill="#00CCBE"/>
<path fill-rule="evenodd" clip-rule="evenodd" d="M233.974 147.141L233.664 125.742L242.223 125.618L242.532 147.017L233.974 147.141Z" fill="#FABE00"/>
<path fill-rule="evenodd" clip-rule="evenodd" d="M277.211 147.939L277.146 125.693L285.706 125.667L285.771 147.914L277.211 147.939Z" fill="#FABE00"/>
<path fill-rule="evenodd" clip-rule="evenodd" d="M285.75 141.035C285.75 141.035 276.937 141.148 276.93 141.148C275.136 141.172 273.109 141.734 271.411 142.287C267.844 143.448 264.563 146.057 264.836 150.157C264.875 150.736 264.974 151.31 265.114 151.873L286.448 151.514L285.75 141.035Z" fill="white"/>
<path fill-rule="evenodd" clip-rule="evenodd" d="M279.244 25.1085L274.225 27.4879C271.226 28.9332 271.269 30.6279 274.355 32.573C274.355 32.573 270.87 37.9633 270.867 37.9674C269.9 39.4632 268.977 41.0243 268.985 42.867C268.99 44.2282 269.672 46.1921 270.919 46.9213C271.055 47.0009 271.203 47.0573 271.35 47.1133C273.264 47.8414 275.179 48.5678 277.093 49.2945L279.701 60.3442L292.56 37.5437L293 31.2204L290.783 30.6498L287.931 35.7837L285.91 33.6647L289.903 25.0761L280.532 23.0551L279.244 25.1085Z" fill="#CA8671"/>
<path fill-rule="evenodd" clip-rule="evenodd" d="M296.112 22.1588L287.149 20.1054C284.128 19.0079 281.923 19.9913 280.532 23.0554L289.903 25.076L285.91 33.665L287.931 35.7837L290.783 30.6501L293 31.2204L292.56 37.5437L297.139 29.3135C298.824 26.1735 298.481 23.7886 296.112 22.1588Z" fill="#FABE00"/>
<path fill-rule="evenodd" clip-rule="evenodd" d="M228.507 134.532L228.165 92.4677C228.145 90.007 229.227 87.6665 231.114 86.0877C233.001 84.5088 235.497 83.8576 237.915 84.3117L286.759 93.4873L283.72 109.666L244.707 102.336L244.968 134.398L228.507 134.532Z" fill="#007E8A"/>
<path fill-rule="evenodd" clip-rule="evenodd" d="M245.897 40.8293C244.831 40.8293 243.827 40.1771 243.431 39.1196C242.92 37.7577 243.61 36.2396 244.972 35.7288L250.318 33.7242C251.68 33.2138 253.198 33.9033 253.708 35.2655C254.219 36.6274 253.529 38.1455 252.168 38.6563L246.822 40.6609C246.517 40.775 246.204 40.8293 245.897 40.8293Z" fill="#CA8671"/>
<path fill-rule="evenodd" clip-rule="evenodd" d="M237.273 70.3943L236.817 31.5081L247.154 31.3868L247.61 70.273L237.273 70.3943Z" fill="#CA8671"/>
<path fill-rule="evenodd" clip-rule="evenodd" d="M271.826 134.758H288.287V109.155H271.826V134.758Z" fill="#007E8A"/>
<path fill-rule="evenodd" clip-rule="evenodd" d="M280.057 117.385C275.511 117.385 271.826 113.7 271.826 109.154V92.3517C271.826 87.8064 275.511 84.1215 280.057 84.1215C284.602 84.1215 288.287 87.8064 288.287 92.3517V109.154C288.287 113.7 284.602 117.385 280.057 117.385Z" fill="#007E8A"/>
<path fill-rule="evenodd" clip-rule="evenodd" d="M239.818 37.3238C238.827 37.3238 237.892 36.7228 237.514 35.7425L232.674 23.1935C232.183 21.9212 232.817 20.4919 234.089 20.001C235.363 19.5107 236.791 20.1441 237.281 21.4162L242.121 33.9655C242.612 35.2379 241.978 36.6671 240.706 37.1577C240.414 37.2705 240.114 37.3238 239.818 37.3238Z" fill="#CA8671"/>
<path fill-rule="evenodd" clip-rule="evenodd" d="M234.279 36.7126L232.127 31.7744L230.172 32.5893L235.11 46.0188L237.457 45.3993L235.42 40.2329L252.989 33.5508C256.976 39.6677 262.898 40.662 270.753 36.5336L263.631 17.09C255.558 19.3935 251.587 23.7615 251.717 30.1935L234.279 36.7126Z" fill="white"/>
<path fill-rule="evenodd" clip-rule="evenodd" d="M293.7 73.9692L284.769 75.5826L284.395 84.8888L288.616 88.1808L293.7 73.9692Z" fill="#CA8671"/>
<path fill-rule="evenodd" clip-rule="evenodd" d="M286.406 83.9535L287.673 84.9419L290.687 76.5194L286.677 77.2437L286.406 83.9535ZM288.613 90.1549C288.178 90.1549 287.75 90.011 287.398 89.7373L283.177 86.445C282.675 86.0534 282.392 85.4439 282.418 84.808L282.793 75.5022C282.83 74.5773 283.505 73.802 284.416 73.6377L293.347 72.0243C294.043 71.8993 294.749 72.1531 295.205 72.6913C295.661 73.2291 295.795 73.9695 295.558 74.6337L290.473 88.8449C290.259 89.4418 289.772 89.9 289.163 90.077C288.982 90.1292 288.797 90.1549 288.613 90.1549Z" fill="#CA8671"/>
<path fill-rule="evenodd" clip-rule="evenodd" d="M287.162 80.0247C284.809 80.0247 282.896 78.1243 282.883 75.7684C282.869 73.4047 284.775 71.478 287.139 71.4647L301.855 71.3831H301.879C304.232 71.3831 306.146 73.2838 306.159 75.6393C306.172 78.003 304.267 79.9297 301.903 79.943L287.186 80.0247H287.162Z" fill="#CA8671"/>
<path fill-rule="evenodd" clip-rule="evenodd" d="M241.693 76.1C240.442 76.1 239.201 75.7249 238.142 74.9954C236.439 73.8214 235.427 71.8817 235.437 69.8139L235.551 46.7852L248.061 46.8473L247.992 60.7039L271.951 51.4446L276.461 63.1141L243.947 75.6794C243.218 75.9613 242.453 76.1 241.693 76.1Z" fill="#FA5058"/>
<path fill-rule="evenodd" clip-rule="evenodd" d="M320.269 80.99C318.281 80.99 316.327 80.0453 315.114 78.2857L295.117 49.2924C293.155 46.4486 293.87 42.5528 296.714 40.5916C299.558 38.6298 303.454 39.3459 305.415 42.1893L325.412 71.1827C327.374 74.0264 326.658 77.9222 323.815 79.8834C322.73 80.631 321.493 80.99 320.269 80.99Z" fill="#FA5058"/>
<path fill-rule="evenodd" clip-rule="evenodd" d="M320.197 80.9889L293.99 80.7118L294.122 68.2021L320.329 68.4792L320.197 80.9889Z" fill="#FA5058"/>
<path fill-rule="evenodd" clip-rule="evenodd" d="M166.415 151.612L167.246 92.663L136.639 92.6466V61.9904H79.9717V92.6466H122.183V151.334L166.415 151.612Z" fill="#00CCBE"/>
<path fill-rule="evenodd" clip-rule="evenodd" d="M279.538 60.5724L293.212 52.0487L288.954 43.937L279.538 60.5724Z" fill="#FABE00"/>
<path fill-rule="evenodd" clip-rule="evenodd" d="M246.583 32.9069C245.669 32.9069 244.79 32.3968 244.362 31.5194L242.113 26.9071C241.515 25.6816 242.024 24.2031 243.25 23.6056C244.476 23.0083 245.953 23.5167 246.551 24.7426L248.801 29.3549C249.399 30.5805 248.889 32.0589 247.664 32.6565C247.315 32.8263 246.946 32.9069 246.583 32.9069Z" fill="#CA8671"/>
<path fill-rule="evenodd" clip-rule="evenodd" d="M242.509 34.5368C241.594 34.5368 240.716 34.0267 240.288 33.1492L238.039 28.537C237.441 27.3114 237.95 25.833 239.175 25.2354C240.401 24.6385 241.879 25.1466 242.477 26.3725L244.726 30.9847C245.324 32.2103 244.815 33.6887 243.589 34.2863C243.241 34.4561 242.872 34.5368 242.509 34.5368Z" fill="#CA8671"/>
<path fill-rule="evenodd" clip-rule="evenodd" d="M292.052 89.4218C290.961 89.4218 290.076 88.5375 290.076 87.4466V77.2118C290.076 76.1205 290.961 75.2362 292.052 75.2362C293.143 75.2362 294.027 76.1205 294.027 77.2118V87.4466C294.027 88.5375 293.143 89.4218 292.052 89.4218Z" fill="#CA8671"/>
<path fill-rule="evenodd" clip-rule="evenodd" d="M251.146 31.6196C250.186 31.6196 249.274 31.0575 248.874 30.1196L246.625 24.8555C246.089 23.6015 246.671 22.1508 247.926 21.615C249.18 21.08 250.631 21.6615 251.166 22.9154L253.415 28.1799C253.951 29.4339 253.369 30.8846 252.115 31.4204C251.798 31.5557 251.469 31.6196 251.146 31.6196Z" fill="#CA8671"/>
<path fill-rule="evenodd" clip-rule="evenodd" d="M196.663 139.095C195.555 137.976 194.208 137.416 192.622 137.416H171.239C169.664 137.416 168.316 137.976 167.197 139.095C166.078 140.214 165.519 141.562 165.519 143.137V146.087C165.519 147.662 166.078 149.01 167.197 150.129C168.316 151.248 169.664 151.807 171.239 151.807H192.622C194.208 151.807 195.555 151.248 196.663 150.129C197.782 149.01 198.342 147.662 198.342 146.087V143.137C198.342 141.562 197.782 140.214 196.663 139.095Z" fill="#666666"/>
<path fill-rule="evenodd" clip-rule="evenodd" d="M216.156 143.137V146.087C216.156 147.662 216.715 149.009 217.834 150.129C218.953 151.248 220.301 151.807 221.876 151.807H243.259C244.845 151.807 246.192 151.248 247.301 150.129C248.42 149.009 248.979 147.662 248.979 146.087V143.137C248.979 141.562 248.42 140.214 247.301 139.095C246.192 137.976 244.845 137.417 243.259 137.417H221.876C220.301 137.417 218.953 137.976 217.834 139.095C216.715 140.214 216.156 141.562 216.156 143.137Z" fill="#666666"/>
<path fill-rule="evenodd" clip-rule="evenodd" d="M371.467 103.836C370.133 103.836 368.791 103.387 367.684 102.469L344.721 83.4001C342.203 81.3091 341.857 77.5732 343.948 75.0554C346.039 72.537 349.775 72.1912 352.293 74.2819L375.256 93.3503C377.774 95.4414 378.12 99.1772 376.029 101.695C374.857 103.106 373.168 103.836 371.467 103.836Z" fill="#00CCBE"/>
<path fill-rule="evenodd" clip-rule="evenodd" d="M387.543 84.6279C387.543 82.4006 386.75 80.4937 385.163 78.9077C383.588 77.3319 381.686 76.5443 379.459 76.5443C377.232 76.5443 375.325 77.3319 373.739 78.9077C373.082 79.5681 372.561 80.2856 372.174 81.0588C371.642 82.1389 371.376 83.3286 371.376 84.6279C371.376 86.8557 372.163 88.7567 373.739 90.3322C375.325 91.9186 377.232 92.7116 379.459 92.7116C381.569 92.7116 383.383 91.9999 384.903 90.5768C384.993 90.4979 385.08 90.4159 385.163 90.3322C386.75 88.7567 387.543 86.8557 387.543 84.6279Z" fill="#007E8A"/>
<path fill-rule="evenodd" clip-rule="evenodd" d="M378.884 94.8955L371.976 89.8412L380.239 78.5468C381.097 77.3749 382.493 76.7148 383.941 76.8016L388.423 77.0623L387.927 85.6072L385.771 85.4821L378.884 94.8955Z" fill="#FFAD93"/>
<path fill-rule="evenodd" clip-rule="evenodd" d="M384.903 90.5767C383.383 91.9998 381.568 92.7115 379.459 92.7115C377.232 92.7115 375.325 91.9185 373.738 90.3321C372.163 88.7566 371.375 86.8552 371.375 84.6278C371.375 83.3285 371.641 82.1388 372.174 81.0587L372.307 80.8038L363.128 93.0867L376.183 102.849L385.196 90.7886L384.903 90.5767Z" fill="#00CCBE"/>
<path fill-rule="evenodd" clip-rule="evenodd" d="M311.449 81.4824L312.622 91.3424L346.147 138.492L373.771 117.028L347.45 73.0892L311.449 81.4824Z" fill="#00CCBE"/>
<path fill-rule="evenodd" clip-rule="evenodd" d="M385.593 144.085L385.12 130.705L393.675 130.402L394.147 143.783L385.593 144.085Z" fill="white"/>
<path fill-rule="evenodd" clip-rule="evenodd" d="M398.152 143.903L394.159 142.86H385.44L385.685 151.807L403.938 152.117C404.514 148.358 402.586 145.619 398.152 143.903Z" fill="#666666"/>
<path fill-rule="evenodd" clip-rule="evenodd" d="M359.338 151.424L359.319 142.864L381.989 142.816L382.008 151.376L359.338 151.424Z" fill="white"/>
<path fill-rule="evenodd" clip-rule="evenodd" d="M385.571 142.094C385.571 142.094 376.623 142.615 376.623 142.615C377.62 147.642 377.979 153.183 381.759 157.036C384.192 159.517 387.603 160.704 390.965 159.565L385.571 142.094Z" fill="#999999"/>
<path fill-rule="evenodd" clip-rule="evenodd" d="M314.671 152.37C310.072 152.37 306.164 148.972 305.539 144.399C304.908 139.77 307.838 135.4 312.36 134.228L359.445 122.024L381.908 88.3448C384.171 84.953 388.393 83.4507 392.29 84.6503C396.187 85.8502 398.832 89.4682 398.795 93.5461L398.436 131.943L380 131.771L380.07 124.327L372.832 135.179C372.175 136.164 371.34 137.005 370.38 137.664L370.624 151.374L314.837 152.368C314.782 152.369 314.726 152.37 314.671 152.37Z" fill="#FA5058"/>
<path fill-rule="evenodd" clip-rule="evenodd" d="M381.328 83.7226C380.837 83.7226 380.34 83.5761 379.908 83.2716C378.793 82.4861 378.526 80.9455 379.312 79.8306L382.265 75.6397L382.11 69.4011C380.906 68.7608 380.449 67.2656 381.089 66.0619C381.729 64.8575 383.225 64.4003 384.428 65.0406L385.716 65.7254C386.504 66.1446 387.005 66.9564 387.025 67.8489L387.221 76.3398C387.233 76.868 387.075 77.3863 386.771 77.8189L383.348 82.6758C382.868 83.3581 382.104 83.7226 381.328 83.7226Z" fill="#FFAD93"/>
<path fill-rule="evenodd" clip-rule="evenodd" d="M394.189 86.004H388.811C387.447 86.004 386.342 84.8987 386.342 83.5347C386.342 82.1711 387.447 81.0658 388.811 81.0658H394.189C395.553 81.0658 396.658 82.1711 396.658 83.5347C396.658 84.8987 395.553 86.004 394.189 86.004Z" fill="#FFAD93"/>
<path fill-rule="evenodd" clip-rule="evenodd" d="M389.629 66.5862C396.561 64.9999 399.521 59.8881 398.511 51.2502H377.732C377.188 59.3554 379.937 64.4351 385.978 66.4885L386.19 83.9108L380.893 83.9436L381.105 86.7955L394.975 86.4532L395.089 84.2531L389.58 84.1226L389.629 66.5862Z" fill="white"/>
<path fill-rule="evenodd" clip-rule="evenodd" d="M395.362 73.9113H389.984C388.621 73.9113 387.515 72.806 387.515 71.4421C387.515 70.0785 388.621 68.9731 389.984 68.9731H395.362C396.726 68.9731 397.832 70.0785 397.832 71.4421C397.832 72.806 396.726 73.9113 395.362 73.9113Z" fill="#FFAD93"/>
<path fill-rule="evenodd" clip-rule="evenodd" d="M395.362 77.9366H389.984C388.621 77.9366 387.515 76.8313 387.515 75.4673C387.515 74.1037 388.621 72.9984 389.984 72.9984H395.362C396.726 72.9984 397.832 74.1037 397.832 75.4673C397.832 76.8313 396.726 77.9366 395.362 77.9366Z" fill="#FFAD93"/>
<path fill-rule="evenodd" clip-rule="evenodd" d="M395.362 81.9786H389.984C388.621 81.9786 387.515 80.8733 387.515 79.5093C387.515 78.1457 388.621 77.0404 389.984 77.0404H395.362C396.726 77.0404 397.832 78.1457 397.832 79.5093C397.832 80.8733 396.726 81.9786 395.362 81.9786Z" fill="#FFAD93"/>
<path fill-rule="evenodd" clip-rule="evenodd" d="M323.102 105.831L320.021 94.9932L318.294 96.6233L318.636 110.297L321.537 110.232L323.102 105.831Z" fill="#FEAC92"/>
<path fill-rule="evenodd" clip-rule="evenodd" d="M320.444 103.715L320.53 107.157L321.026 105.763L320.444 103.715ZM318.632 112.271C317.564 112.271 316.685 111.418 316.658 110.345L316.316 96.6711C316.29 95.6379 317.063 94.7701 318.071 94.6583C318.196 93.933 318.723 93.3067 319.478 93.0918C320.527 92.7949 321.62 93.4024 321.918 94.452L324.999 105.29C325.111 105.685 325.097 106.105 324.96 106.492L323.395 110.892C323.12 111.664 322.398 112.187 321.578 112.205L318.677 112.27C318.662 112.271 318.647 112.271 318.632 112.271Z" fill="#FEAC92"/>
<path fill-rule="evenodd" clip-rule="evenodd" d="M285.787 100.932L282.827 88.2164L348.122 72.9009L351.108 85.727L285.787 100.932Z" fill="#00CCBE"/>
<path fill-rule="evenodd" clip-rule="evenodd" d="M318.049 100.248C318.004 100.248 317.96 100.247 317.915 100.246L306.181 99.8712C303.909 99.7987 302.126 97.898 302.199 95.6266C302.272 93.3548 304.176 91.5791 306.444 91.6447L318.178 92.0199C320.449 92.0923 322.232 93.9927 322.159 96.2645C322.088 98.4911 320.261 100.248 318.049 100.248Z" fill="#FFAD93"/>
<path fill-rule="evenodd" clip-rule="evenodd" d="M324.471 65.3477L324.356 75.7619L324.454 78.8749L337.264 86.6814L336.776 59.1545L324.471 65.3477Z" fill="#FFAD93"/>
<path fill-rule="evenodd" clip-rule="evenodd" d="M336.547 55.1943C336.526 55.1075 336.52 55.0204 336.531 54.9336C336.466 52.2607 335.439 49.9626 333.451 48.0396C332.755 47.3877 332.022 46.839 331.25 46.3935C329.751 45.5676 328.094 45.1713 326.28 45.2037C324.823 45.2253 323.476 45.5133 322.238 46.0675C321.075 46.5783 320.038 47.3115 319.125 48.2679C317.202 50.267 316.256 52.6519 316.289 55.4222L316.224 72.1601C316.191 75.1155 317.376 76.7778 319.777 77.1475L330.142 77.0497C334.499 75.311 336.688 72.6271 336.71 68.9982L336.547 55.1943Z" fill="#FFAD93"/>
<path fill-rule="evenodd" clip-rule="evenodd" d="M336.003 51.4974C335.565 50.3009 334.576 49.148 333.693 48.2375C332.834 47.3529 331.825 46.6033 330.708 46.0778C329.464 45.4925 328.203 45.3158 326.85 45.2038L316.534 44.3561C315.512 44.3779 314.665 44.7364 313.991 45.432C313.285 46.1379 312.937 46.9965 312.948 48.0069C312.98 49.0063 313.339 49.8649 314.024 50.582C314.752 51.2446 315.61 51.5705 316.599 51.5599L323.835 51.4783L324.308 62.3814C324.308 62.3814 336.803 61.7404 336.821 61.7394C336.918 61.7343 336.669 56.2545 336.635 55.7622C336.616 55.4851 336.412 52.6153 336.003 51.4974Z" fill="#9C006D"/>
<path fill-rule="evenodd" clip-rule="evenodd" d="M335.545 58.6006C334.839 57.9163 333.991 57.5845 333.002 57.6064C332.046 57.5958 331.21 57.9487 330.493 58.6659C329.797 59.3612 329.455 60.2031 329.466 61.1919C329.498 62.1479 329.857 62.9682 330.541 63.653C331.28 64.3701 332.122 64.7231 333.067 64.7121C334.1 64.7121 334.947 64.3373 335.61 63.5877C336.273 62.9033 336.599 62.0775 336.588 61.1106C336.588 60.1108 336.24 59.2744 335.545 58.6006Z" fill="#FFAD93"/>
<path fill-rule="evenodd" clip-rule="evenodd" d="M320.298 55.6343C319.592 55.1997 318.821 55.0856 317.984 55.2923C317.191 55.5092 316.593 55.9712 316.191 56.6774L313.127 61.8114C312.703 62.5067 312.584 63.2563 312.769 64.0603C313.018 64.8643 313.497 65.4782 314.203 65.9019C314.866 66.3365 315.61 66.4397 316.435 66.2118C317.24 66.0051 317.854 65.5596 318.277 64.8752L321.325 59.7416C321.727 59.0025 321.83 58.2419 321.635 57.4599C321.439 56.6556 320.994 56.047 320.298 55.6343Z" fill="#FFAD93"/>
<path fill-rule="evenodd" clip-rule="evenodd" d="M79.3526 30.878L79.3198 30.9433L78.906 32.3937L94.0691 42.8407L92.9447 29.8837C98.1381 30.4923 101.202 29.444 102.137 26.7383C102.604 25.4239 102.56 23.7288 102.007 21.6535L100.491 16.373L89.1149 7.37671L84.1603 17.4814L79.3526 30.878Z" fill="#A76854"/>
<path fill-rule="evenodd" clip-rule="evenodd" d="M105.086 10.9295C104.978 10.6797 104.821 10.3593 104.614 9.96804C104.168 9.18561 103.647 8.41411 103.049 7.65355C101.159 5.18735 98.8228 3.28047 96.0412 1.93291C92.8469 0.390261 89.4029 -0.229193 85.7084 0.0752382C82.2424 0.335935 79.7704 1.24854 78.293 2.81306C77.6411 3.48684 76.7066 5.10023 75.4899 7.65355C74.5989 9.51157 73.4689 10.6251 72.0999 10.9944C70.5569 11.4075 69.4106 12.2005 68.6613 13.3742C68.5741 13.5047 68.0688 14.6452 67.1453 16.7967C66.7544 17.6875 65.8254 18.432 64.3586 19.0296C62.4896 19.8007 61.289 20.4202 60.7567 20.8876C60.17 21.409 59.5939 22.2129 59.0288 23.2994L79.3198 30.943L79.3526 30.8778L84.1602 17.4811L89.1148 7.37645L100.491 16.373L102.006 21.6533C102.56 23.7286 102.604 25.4236 102.136 26.7384L119.331 23.0876C118.016 19.9148 115.963 18.2417 113.17 18.0681C112.312 13.7435 109.617 11.3641 105.086 10.9295Z" fill="#98006C"/>
<path fill-rule="evenodd" clip-rule="evenodd" d="M81.2102 15.884C80.6888 16.5468 80.4657 17.2964 80.5419 18.1332C80.6181 18.9805 80.982 19.6707 81.6339 20.2031C82.2858 20.7354 83.0358 20.9636 83.8828 20.8874C84.7195 20.8006 85.4097 20.4364 85.953 19.7954C86.485 19.1435 86.7132 18.3939 86.6374 17.5465C86.5612 16.7098 86.1918 16.0196 85.5293 15.4767C84.877 14.9334 84.1329 14.7052 83.2961 14.792C82.4488 14.8682 81.7535 15.2321 81.2102 15.884Z" fill="#A76854"/>
<path fill-rule="evenodd" clip-rule="evenodd" d="M93.6054 91.7833C92.3446 91.7833 91.0651 91.4926 89.8654 90.8793C85.818 88.8104 84.2148 83.8517 86.2837 79.8043L104.406 44.3571C106.476 40.31 111.434 38.7065 115.481 40.7757C119.529 42.8448 121.132 47.8032 119.063 51.8506L100.94 87.2979C99.4846 90.1454 96.5981 91.7833 93.6054 91.7833Z" fill="#FA5058"/>
<path fill-rule="evenodd" clip-rule="evenodd" d="M128.845 94.5055L104.594 52.1971L118.875 44.011L143.127 86.3194L128.845 94.5055Z" fill="#FA5058"/>
<path fill-rule="evenodd" clip-rule="evenodd" d="M125.459 90.153L125.589 99.6053L146.418 100.192C147.135 95.9224 144.972 92.7712 139.931 90.7396L137.796 90.153H125.459Z" fill="white"/>
<path fill-rule="evenodd" clip-rule="evenodd" d="M135.819 56.2332L134.986 53.8648L132.74 55.2229L117.241 29.6032L119.495 28.2396L134.97 53.8203L124.9 25.2028L127.384 24.3285L138.303 55.3589L135.819 56.2332Z" fill="white"/>
<path fill-rule="evenodd" clip-rule="evenodd" d="M113.269 63.2403C112.185 63.2403 111.11 62.7629 110.384 61.8466C109.122 60.2544 109.389 57.9402 110.981 56.6781C117.544 51.4754 120.138 49.3919 121.131 48.5798L124.198 41.2416C124.954 39.4325 126.997 38.5342 128.841 39.1998L135.392 41.5628C137.304 42.252 138.294 44.3604 137.605 46.2718C136.916 48.1834 134.808 49.1739 132.896 48.4841L129.637 47.3091L127.581 52.2281C127.481 52.4659 127.357 52.6925 127.211 52.9043C126.787 53.5156 126.752 53.5655 115.553 62.4442C114.876 62.9803 114.07 63.2403 113.269 63.2403Z" fill="#A66854"/>
<path fill-rule="evenodd" clip-rule="evenodd" d="M146.597 60.1814C146.597 59.7902 146.581 59.4099 146.548 59.0405H123.275C123.242 59.4099 123.226 59.7902 123.226 60.1814C123.226 63.4081 124.367 66.1624 126.648 68.4444C128.93 70.7261 131.684 71.8669 134.911 71.8669C138.138 71.8669 140.893 70.7261 143.174 68.4444C145.456 66.1624 146.597 63.4081 146.597 60.1814Z" fill="#999999"/>
<path fill-rule="evenodd" clip-rule="evenodd" d="M136.849 79.2363C136.307 79.2363 135.763 79.117 135.258 78.8748L129.616 76.1752L116.242 76.7393C114.198 76.8312 112.488 75.2455 112.402 73.2109C112.316 71.1762 113.896 69.4572 115.931 69.3715L130.224 68.7684C130.829 68.7404 131.426 68.8658 131.971 69.1265L136.468 71.2784L140.593 68.3044C142.244 67.1141 144.549 67.4865 145.74 69.1388C146.931 70.7908 146.557 73.0954 144.906 74.2865L139.006 78.54C138.366 79.0009 137.61 79.2363 136.849 79.2363Z" fill="#A66854"/>
<path fill-rule="evenodd" clip-rule="evenodd" d="M125.557 82.643L107.059 81.6487C104.696 81.5219 102.543 80.2492 101.292 78.2398L80.7903 45.3025L93.1018 37.6388L111.609 67.3702L126.335 68.1618L125.557 82.643Z" fill="#C89800"/>
<path fill-rule="evenodd" clip-rule="evenodd" d="M173.629 101.348L162.84 98.6591L165.229 89.0756L176.018 91.7649L173.629 101.348Z" fill="#FABE00"/>
<path fill-rule="evenodd" clip-rule="evenodd" d="M79.7574 93.5581C75.2384 93.5581 71.5603 89.9114 71.5285 85.3853C71.4964 80.8397 75.1554 77.1291 79.701 77.0973L128.48 76.755C128.499 76.7546 128.52 76.7546 128.539 76.7546C133.058 76.7546 136.736 80.4013 136.768 84.9275C136.8 89.4731 133.141 93.1837 128.595 93.2154L79.8165 93.5578C79.797 93.5581 79.7769 93.5581 79.7574 93.5581Z" fill="#FA5058"/>
<path fill-rule="evenodd" clip-rule="evenodd" d="M163.922 101.462L126.715 93.0114L130.36 76.9592L167.568 85.4098L163.922 101.462Z" fill="#FA5058"/>
<path fill-rule="evenodd" clip-rule="evenodd" d="M93.5218 36.534L78.9061 32.3936L62.7285 101.17L93.0913 101.61L101.843 59.8067L93.5218 36.534Z" fill="#FABE00"/>
<path opacity="0.1" fill-rule="evenodd" clip-rule="evenodd" d="M91.8456 85.2944C88.9281 85.2944 86.2999 83.2727 85.6463 80.3056L78.8832 49.6011C78.1285 46.1742 80.2943 42.7841 83.7217 42.0293C87.1466 41.2739 90.5387 43.4404 91.2935 46.8674L98.0569 77.5722C98.8117 80.9992 96.6455 84.3896 93.2185 85.1444C92.7582 85.2455 92.2984 85.2944 91.8456 85.2944Z" fill="black" fill-opacity="0.1"/>
<path fill-rule="evenodd" clip-rule="evenodd" d="M94.7688 80.0286C94.1456 80.0286 93.5193 79.9367 92.9091 79.7505C90.9858 79.1614 89.4548 77.6967 88.7817 75.8011L76.6721 41.7065L88.6474 37.4534L97.8907 63.4786L112.837 52.4586L120.379 62.687L98.5399 78.7886C97.4346 79.6039 96.1099 80.0286 94.7688 80.0286Z" fill="#FABE00"/>
<path fill-rule="evenodd" clip-rule="evenodd" d="M173.635 87.2519L172.788 90.3485V101.186L182.175 101.056L182.745 81.0099C178.627 80.3255 175.591 82.4059 173.635 87.2519Z" fill="white"/>
<path fill-rule="evenodd" clip-rule="evenodd" d="M72.1486 92.6465L72.5073 48.8546H44.7847L45.0621 151.351H122.183V92.6465H72.1486Z" fill="#007E8A"/>
<path fill-rule="evenodd" clip-rule="evenodd" d="M263.256 82.6233C262.68 81.45 261.751 80.6515 260.469 80.2275L252.418 77.4408C252.244 77.3755 252.076 77.3321 251.913 77.3103C250.805 77.0499 249.718 77.1637 248.654 77.6526C247.871 78.0439 247.252 78.5871 246.795 79.2824C246.556 79.6299 246.361 80.0266 246.209 80.4721L246.16 80.521C246.062 80.7926 245.986 81.0697 245.932 81.3519C245.79 82.3192 245.953 83.2752 246.421 84.2206C247.04 85.4267 247.996 86.2416 249.289 86.6653L257.356 89.4199C258.617 89.8869 259.85 89.8162 261.056 89.2077C261.98 88.7188 262.669 88.0942 263.126 87.3333C263.267 87.0295 263.392 86.7251 263.501 86.4207H263.55C263.68 85.9755 263.75 85.5627 263.761 85.1821C263.859 84.3129 263.691 83.4601 263.256 82.6233Z" fill="#FABE00"/>
<path fill-rule="evenodd" clip-rule="evenodd" d="M262.62 72.5839C261.664 72.3557 260.703 72.4319 259.736 72.8122C258.476 73.3336 257.59 74.2192 257.079 75.4687L253.641 83.2916C253.076 84.4977 253.043 85.7254 253.543 86.9748C253.967 87.9309 254.531 88.6754 255.238 89.2077C255.542 89.3707 255.836 89.5227 256.118 89.6638V89.713C256.541 89.8757 256.938 89.9846 257.307 90.039C258.177 90.2016 259.046 90.1039 259.915 89.7455C261.132 89.2459 262.007 88.3767 262.539 87.1378L265.978 79.3477C266.065 79.1738 266.125 79.0108 266.157 78.8584C266.516 77.7722 266.489 76.6799 266.076 75.5824C265.76 74.7679 265.282 74.105 264.641 73.5942C264.305 73.3226 263.924 73.0893 263.501 72.8935L263.452 72.845C263.18 72.736 262.903 72.6488 262.62 72.5839Z" fill="#FABE00"/>
<path fill-rule="evenodd" clip-rule="evenodd" d="M272.986 78.9075C272.725 78.5488 272.443 78.2447 272.139 77.9946C271.498 77.3973 270.715 77.0171 269.791 76.8537C268.52 76.604 267.325 76.8701 266.206 77.6526L259.149 82.4114C258.964 82.4985 258.828 82.5962 258.742 82.7049C257.862 83.4327 257.297 84.3726 257.047 85.5244C256.873 86.3936 256.927 87.214 257.21 87.9851C257.362 88.3767 257.563 88.7785 257.813 89.1916V89.2401C257.976 89.4683 258.155 89.6966 258.35 89.9248C259.035 90.6201 259.893 91.0656 260.926 91.2611C262.251 91.4893 263.484 91.2232 264.625 90.4626L271.682 85.6546C272.801 84.9487 273.486 83.9219 273.736 82.5744C273.888 81.5422 273.795 80.6186 273.459 79.8037C273.317 79.4993 273.149 79.2171 272.953 78.9564L272.986 78.9075Z" fill="#FABE00"/>
<path fill-rule="evenodd" clip-rule="evenodd" d="M270.932 103.533L275.251 81.3519L243.959 81.5152L248.18 103.533H270.932Z" fill="white"/>
<path fill-rule="evenodd" clip-rule="evenodd" d="M169.073 77.6974L166.589 76.823L177.508 45.7926L179.993 46.6666L169.922 75.2851L185.398 49.7037L187.652 51.0674L172.153 76.687L169.907 75.3285L169.073 77.6974Z" fill="white"/>
<path fill-rule="evenodd" clip-rule="evenodd" d="M175.248 74.2953C175.085 74.3168 174.917 74.3602 174.743 74.4258L166.692 77.2125C165.41 77.6362 164.481 78.4347 163.905 79.6083C163.47 80.4447 163.302 81.2979 163.4 82.1671C163.411 82.547 163.482 82.9601 163.612 83.4057H163.661C163.769 83.7101 163.894 84.0138 164.036 84.3183C164.492 85.0792 165.182 85.7038 166.105 86.1923C167.312 86.8012 168.545 86.8719 169.805 86.4042L177.872 83.6503C179.165 83.2266 180.122 82.4114 180.741 81.2056C181.208 80.2602 181.371 79.3039 181.23 78.3369C181.176 78.0547 181.099 77.7773 181.002 77.5056L180.952 77.4571C180.8 77.0116 180.605 76.6149 180.366 76.2671C179.91 75.5718 179.29 75.0285 178.508 74.6376C177.443 74.1484 176.357 74.0342 175.248 74.2953Z" fill="#FABE00"/>
<path fill-rule="evenodd" clip-rule="evenodd" d="M170.082 72.4534C169.571 71.2042 168.686 70.3186 167.425 69.7972C166.459 69.4166 165.497 69.3408 164.541 69.569C164.258 69.6339 163.981 69.721 163.709 69.8294L163.661 69.8786C163.237 70.074 162.857 70.3077 162.52 70.5793C161.879 71.0901 161.401 71.7526 161.085 72.5675C160.673 73.665 160.646 74.757 161.004 75.8435C161.037 75.9955 161.096 76.1585 161.183 76.3324L164.622 84.1226C165.154 85.3611 166.029 86.2303 167.246 86.7302C168.115 87.089 168.985 87.1867 169.854 87.0237C170.223 86.9694 170.62 86.8607 171.043 86.6977V86.6489C171.326 86.5078 171.619 86.3554 171.924 86.1924C172.63 85.6601 173.195 84.9159 173.619 83.9599C174.118 82.7104 174.086 81.4824 173.521 80.2763L170.082 72.4534Z" fill="#FABE00"/>
<path fill-rule="evenodd" clip-rule="evenodd" d="M166.235 88.2462C167.268 88.0507 168.126 87.6052 168.811 86.9099C169.006 86.6817 169.185 86.4534 169.348 86.2252V86.1763C169.598 85.7632 169.799 85.3614 169.951 84.9702C170.234 84.1987 170.288 83.3787 170.114 82.5091C169.864 81.3577 169.299 80.4178 168.42 79.6897C168.333 79.5813 168.197 79.4836 168.012 79.3965L160.955 74.6377C159.836 73.8552 158.641 73.5891 157.37 73.8388C156.446 74.0022 155.664 74.3821 155.023 74.9797C154.719 75.2295 154.436 75.5339 154.175 75.8926L154.208 75.9412C154.012 76.2022 153.844 76.4844 153.702 76.7889C153.366 77.6037 153.273 78.5273 153.426 79.5595C153.675 80.9067 154.36 81.9334 155.479 82.6397L162.536 87.4473C163.677 88.2083 164.91 88.4744 166.235 88.2462Z" fill="#FABE00"/>
<path fill-rule="evenodd" clip-rule="evenodd" d="M178.981 100.518L183.202 78.5002L151.91 78.3369L156.229 100.518H178.981Z" fill="white"/>
<path fill-rule="evenodd" clip-rule="evenodd" d="M318.623 108.431L116.907 107.959L116.928 99.3987L318.643 99.8712L318.623 108.431Z" fill="#91A7A7"/>
<path fill-rule="evenodd" clip-rule="evenodd" d="M190.24 151.879C188.917 151.879 187.605 151.633 186.371 151.155L148.724 136.553C143.214 134.415 140.481 128.217 142.617 122.708C144.754 117.199 150.953 114.464 156.462 116.601L192.216 130.469L217.117 130.342L255.58 118.32C261.22 116.557 267.222 119.701 268.984 125.341C270.747 130.981 267.604 136.982 261.964 138.745L221.969 151.246C220.954 151.563 219.897 151.727 218.833 151.732L190.295 151.879H190.24Z" fill="#9C006D"/>
<path fill-rule="evenodd" clip-rule="evenodd" d="M214.997 50.9688C214.157 50.9688 213.49 51.2452 212.897 51.838C212.303 52.4308 212.028 53.0981 212.028 53.9383C212.028 54.7781 212.303 55.4458 212.896 56.0382C213.49 56.6314 214.157 56.9078 214.997 56.9078C215.836 56.9078 216.504 56.6314 217.097 56.0382C217.69 55.4454 217.966 54.7778 217.966 53.9383C217.966 53.0985 217.69 52.4312 217.097 51.838C216.504 51.2452 215.836 50.9688 214.997 50.9688ZM214.997 59.5414C213.456 59.5414 212.122 58.9896 211.034 57.9007C209.946 56.8125 209.394 55.4793 209.394 53.9383C209.394 52.3974 209.946 51.0642 211.034 49.9756C212.122 48.887 213.456 48.3352 214.997 48.3352C216.537 48.3352 217.87 48.887 218.959 49.9756C220.048 51.0645 220.6 52.3977 220.6 53.9383C220.6 55.4789 220.048 56.8121 218.959 57.9007C217.87 58.9896 216.537 59.5414 214.997 59.5414Z" fill="#FA5058"/>
<path fill-rule="evenodd" clip-rule="evenodd" d="M210.533 46.7192L210.875 57.8831C210.364 64.435 207.485 68.2692 202.205 69.6817L194.186 69.9598L194.121 78.3206L208.186 77.8644C215.064 76.4626 218.1 72.7305 217.297 66.6675L214.689 46.7192H210.533Z" fill="#FFAD93"/>
<path fill-rule="evenodd" clip-rule="evenodd" d="M208.219 41.5995C208.076 41.6019 207.934 41.6074 207.792 41.6163C205.722 41.7471 203.64 42.1062 201.578 42.3478C198.006 42.767 195.321 45.7109 194.259 48.994C193.648 50.8828 193.463 52.8912 193.486 54.8681L194.187 69.9598L197.561 69.9048C198.418 69.8908 199.276 69.8815 200.132 69.8535C201.246 69.8166 202.233 69.8703 203.299 69.4821C204.045 69.2102 204.767 68.8722 205.443 68.4537C206.747 67.647 207.849 66.5523 208.677 65.2621C210.082 63.0699 210.675 60.451 210.875 57.8833L210.533 46.7192H214.689C214.911 46.7192 214.406 44.7067 214.322 44.5243C214.014 43.856 213.509 43.3086 212.903 42.8982C211.551 41.9836 209.849 41.5736 208.219 41.5995Z" fill="#9C006D"/>
<path fill-rule="evenodd" clip-rule="evenodd" d="M208.015 60.7233L206.655 58.468L218.44 51.3605L219.8 53.6155L208.015 60.7233Z" fill="#FA5058"/>
<path fill-rule="evenodd" clip-rule="evenodd" d="M211.951 58.7636C211.179 57.9921 210.239 57.6063 209.131 57.6063C208.023 57.6063 207.078 57.9921 206.295 58.7636C205.524 59.546 205.139 60.4911 205.139 61.5995C205.139 62.7075 205.524 63.6474 206.295 64.4189C207.078 65.201 208.023 65.5923 209.131 65.5923C210.239 65.5923 211.179 65.201 211.951 64.4189C212.733 63.6474 213.124 62.7075 213.124 61.5995C213.124 60.4911 212.733 59.546 211.951 58.7636Z" fill="#FFAD93"/>
<path fill-rule="evenodd" clip-rule="evenodd" d="M215.178 76.3C211.94 73.062 208.023 71.4431 203.427 71.4431C198.831 71.4431 194.909 73.062 191.66 76.3C191.345 76.615 191.046 76.941 190.764 77.2775H216.09C215.797 76.941 215.493 76.615 215.178 76.3Z" fill="white"/>
<path fill-rule="evenodd" clip-rule="evenodd" d="M182.55 136.602C183.05 141.219 185.619 143.436 190.259 143.251L218.34 142.925C224.978 143.11 228.325 140.355 228.379 134.662L226.066 76.6376H185.54L182.55 136.602Z" fill="#FABE00"/>
<path fill-rule="evenodd" clip-rule="evenodd" d="M168.274 151.63C167.879 151.63 167.477 151.576 167.078 151.462C164.766 150.803 163.425 148.395 164.084 146.082L168.647 130.061C169.306 127.749 171.716 126.409 174.028 127.067C176.34 127.726 177.681 130.135 177.022 132.447L172.459 148.468C171.913 150.382 170.169 151.63 168.274 151.63Z" fill="#FFAD93"/>
<path fill-rule="evenodd" clip-rule="evenodd" d="M169.412 151.832H169.402L152.224 151.766C151.048 151.762 150.018 150.979 149.699 149.847C149.38 148.715 149.85 147.509 150.851 146.891L158.56 142.133C159.322 141.662 160.269 141.612 161.077 141.997L170.545 146.511C171.543 146.987 172.105 148.009 172.042 149.048C172.045 149.101 172.046 149.154 172.046 149.208C172.04 150.659 170.862 151.832 169.412 151.832Z" fill="#FEAC92"/>
<path fill-rule="evenodd" clip-rule="evenodd" d="M179.079 111.652C178.43 111.652 177.77 111.558 177.116 111.359C173.549 110.277 171.536 106.507 172.619 102.941L179.154 81.4118C180.236 77.8451 184.007 75.8323 187.572 76.914C191.139 77.9968 193.152 81.7658 192.07 85.3325L185.535 106.861C184.651 109.775 181.974 111.652 179.079 111.652Z" fill="#FABE00"/>
<path fill-rule="evenodd" clip-rule="evenodd" d="M175.026 146.793L161.973 143.356L172.55 103.183L185.603 106.62L175.026 146.793Z" fill="#FABE00"/>
<path fill-rule="evenodd" clip-rule="evenodd" d="M243.189 151.663C241.293 151.663 239.549 150.415 239.004 148.5L234.441 132.48C233.782 130.167 235.123 127.759 237.435 127.099C239.751 126.442 242.157 127.782 242.816 130.094L247.379 146.115C248.037 148.427 246.697 150.836 244.384 151.495C243.986 151.609 243.584 151.663 243.189 151.663Z" fill="#FFAD93"/>
<path fill-rule="evenodd" clip-rule="evenodd" d="M242.05 151.864C240.601 151.864 239.388 150.346 238.918 148.168C238.907 148.115 239.418 149.134 239.421 149.081C239.358 148.042 239.919 147.019 240.917 146.544L250.386 142.029C251.194 141.644 252.142 141.695 252.904 142.165L260.612 146.924C261.613 147.542 262.082 148.748 261.764 149.88C261.445 151.012 260.414 151.795 259.239 151.799L242.061 151.864H242.05Z" fill="#FEAC92"/>
<path fill-rule="evenodd" clip-rule="evenodd" d="M231.175 112.776C228.124 112.776 225.359 110.695 224.617 107.598L219.19 84.9443C218.321 81.3199 220.556 77.6769 224.181 76.8088C227.803 75.9392 231.448 78.1744 232.316 81.7999L237.744 104.454C238.612 108.078 236.377 111.721 232.752 112.589C232.224 112.716 231.695 112.776 231.175 112.776Z" fill="#FABE00"/>
<path fill-rule="evenodd" clip-rule="evenodd" d="M234.626 147.311L224.636 107.675L237.724 104.376L247.715 144.012L234.626 147.311Z" fill="#FABE00"/>
<path fill-rule="evenodd" clip-rule="evenodd" d="M310.257 99.9892L297.903 99.9564L297.935 88.1047L310.288 88.1372L310.257 99.9892Z" fill="#00CCBE"/>
<path fill-rule="evenodd" clip-rule="evenodd" d="M297.919 99.9564H297.898L284.175 99.9072C280.902 99.8955 278.259 97.2329 278.27 93.9603C278.282 90.695 280.933 88.0555 284.196 88.0555H284.217L297.94 88.1044C301.213 88.1164 303.857 90.779 303.845 94.0516C303.833 97.3169 301.182 99.9564 297.919 99.9564Z" fill="#00CCBE"/>
<path fill-rule="evenodd" clip-rule="evenodd" d="M303.642 105.864L294.857 105.571L298.524 151.71H304.31L303.642 105.864Z" fill="#91A7A7"/>
<path fill-rule="evenodd" clip-rule="evenodd" d="M137.258 106.255L127.822 106.45L128.327 151.334H134.113L137.258 106.255Z" fill="#91A7A7"/>
<path fill-rule="evenodd" clip-rule="evenodd" d="M87.3708 151.318H104.435V127.035H87.3708V151.318Z" fill="#9C006D"/>
<path fill-rule="evenodd" clip-rule="evenodd" d="M99.301 99.4916H92.5045V115.17C91.5488 115.572 90.6683 116.18 89.8644 116.995C88.2021 118.658 87.3708 120.668 87.3708 123.025V127.035H104.435V123.025C104.435 120.668 103.609 118.658 101.957 116.995C101.143 116.18 100.257 115.572 99.301 115.17V99.4916Z" fill="#00CCBE"/>
<path fill-rule="evenodd" clip-rule="evenodd" d="M114.001 151.367H127.887L132.011 139.307H109.161L114.001 151.367Z" fill="white"/>
<path fill-rule="evenodd" clip-rule="evenodd" d="M125.475 139.176H115.387C115.615 140.046 116.066 140.817 116.739 141.491C117.75 142.49 118.977 142.99 120.423 142.99C121.879 142.99 123.112 142.49 124.122 141.491C124.796 140.817 125.247 140.046 125.475 139.176Z" fill="#FB5058"/>
<path fill-rule="evenodd" clip-rule="evenodd" d="M127.382 139.176H123.584V146.266C123.584 146.777 123.78 147.227 124.171 147.619C124.53 147.977 124.964 148.157 125.475 148.157C126.029 148.157 126.48 147.977 126.828 147.619C127.197 147.227 127.382 146.777 127.382 146.266V139.176Z" fill="#FB5058"/>
<path fill-rule="evenodd" clip-rule="evenodd" d="M110.938 139.176V140.708C110.938 141.632 111.29 142.441 111.997 143.137C112.627 143.767 113.398 144.082 114.311 144.082C115.311 144.082 116.12 143.767 116.739 143.137C117.413 142.441 117.75 141.632 117.75 140.708V139.176H110.938Z" fill="#FB5058"/>
<path fill-rule="evenodd" clip-rule="evenodd" d="M17.6165 84.025V90.8537L37.8257 88.4903L37.3696 83.0796L17.6165 84.025Z" fill="#00CBBD"/>
<path fill-rule="evenodd" clip-rule="evenodd" d="M17.6 83.7967L12.5317 89.2239L12.776 96.5254L0.715576 95.9876L1.09073 151.384L54.1888 151.318L54.0094 97.8453L41.2647 97.3728L41.6391 87.0399L37.0269 82.7051L36.0494 97.2586L18.513 96.672L17.6 83.7967Z" fill="#00CBBD"/>
<path fill-rule="evenodd" clip-rule="evenodd" d="M31.3554 124.297C31.3882 124.568 31.323 124.796 31.16 124.981C30.997 125.253 30.7688 125.378 30.4756 125.356C30.2255 125.356 29.9922 125.28 29.7745 125.128C29.5685 124.965 29.4544 124.747 29.4325 124.476C29.3563 124.226 29.3997 123.987 29.5627 123.759C29.7475 123.574 29.9812 123.465 30.2638 123.433C30.5675 123.411 30.8016 123.471 30.9642 123.612C31.1709 123.797 31.3011 124.025 31.3554 124.297ZM25.081 124.476C25.0266 124.193 25.0919 123.949 25.2764 123.742C25.4179 123.547 25.6293 123.422 25.9119 123.368C26.1292 123.346 26.3684 123.416 26.6291 123.579C26.7924 123.764 26.9007 123.992 26.955 124.264C27.0422 124.514 27.0148 124.753 26.8737 124.981C26.7104 125.187 26.4825 125.301 26.1894 125.323C25.9068 125.389 25.6516 125.323 25.4233 125.128C25.1951 124.987 25.081 124.769 25.081 124.476ZM36.0169 124.883L35.5765 109.303L29.7421 109.026L29.6932 120.124L26.515 110.981L21.0714 113.1L24.087 121.738L15.9053 124.427L18.4641 131.484L33.507 132.82L36.0169 124.883ZM39.912 139.942L41.1013 135.656L15.2534 135.999L16.3615 141.034L39.912 139.942Z" fill="white"/>
<path fill-rule="evenodd" clip-rule="evenodd" d="M396.376 58.2256C396.376 57.78 396.349 57.3454 396.295 56.9218H379.981C379.915 57.3454 379.883 57.78 379.883 58.2256C379.883 60.5073 380.687 62.4521 382.295 64.0603C383.914 65.6788 385.859 66.4886 388.13 66.4886C390.411 66.4886 392.356 65.6788 393.964 64.0603C395.572 62.4521 396.376 60.5073 396.376 58.2256Z" fill="#9C006D"/>
<path fill-rule="evenodd" clip-rule="evenodd" d="M254.863 31.3668C255.624 33.1486 256.466 34.6049 257.389 35.7348C258.302 36.8647 260.067 37.3482 262.686 37.1852C265.185 37.0222 267.227 36.2018 268.814 34.7241L254.863 31.3668Z" fill="#9C006D"/>
<path fill-rule="evenodd" clip-rule="evenodd" d="M409.757 152.052H426.821V146.983H409.757V152.052Z" fill="#9C006D"/>
<path fill-rule="evenodd" clip-rule="evenodd" d="M421.687 100.225H414.89V115.903C413.934 116.305 413.054 116.914 412.25 117.729C410.588 119.391 409.757 121.401 409.757 123.759V146.983H426.82V123.759C426.82 121.401 425.994 119.391 424.343 117.729C423.529 116.914 422.643 116.305 421.687 115.903V100.225Z" fill="#00CCBE"/>
<path fill-rule="evenodd" clip-rule="evenodd" d="M321.764 114.341C321.636 114.341 321.506 114.329 321.376 114.303C320.306 114.089 319.612 113.049 319.825 111.979L321.015 106.014C321.228 104.944 322.269 104.249 323.338 104.463C324.408 104.677 325.103 105.717 324.889 106.787L323.699 112.752C323.512 113.691 322.687 114.341 321.764 114.341Z" fill="#FEAC92"/>
<path fill-rule="evenodd" clip-rule="evenodd" d="M61.5715 114.746C60.8977 123.112 63.6359 128.339 69.7856 130.425L69.8184 149.134L64.1955 148.874L64.3585 151.53H78.6678L78.896 149.183L72.9639 149.134L73.1593 130.523C80.3519 128.914 83.3941 123.704 82.2861 114.893L61.5715 114.746Z" fill="white"/>
<path fill-rule="evenodd" clip-rule="evenodd" d="M80.2813 119.538C80.2813 119.092 80.254 118.658 80.2 118.234H63.8858C63.8205 118.658 63.7881 119.092 63.7881 119.538C63.7881 121.82 64.592 123.764 66.2 125.372C67.8188 126.991 69.764 127.801 72.0344 127.801C74.3164 127.801 76.2609 126.991 77.8691 125.372C79.4771 123.764 80.2813 121.82 80.2813 119.538Z" fill="#9C006D"/>
<path fill-rule="evenodd" clip-rule="evenodd" d="M126.387 97.4054L127.92 86.2904L113.496 84.3019L111.98 95.4172L126.387 97.4054Z" fill="#FABE00"/>
<path fill-rule="evenodd" clip-rule="evenodd" d="M132.483 88.4253L135.889 99.1166L149.759 94.7162L146.369 84.0413L132.483 88.4253Z" fill="#FABE00"/>
<path fill-rule="evenodd" clip-rule="evenodd" d="M150.574 100.209L152.562 90.7067H107.58L110.579 99.7033L150.574 100.209Z" fill="white"/>
</g>
<defs>
<clipPath id="clip0">
<rect width="426.105" height="160" fill="white" transform="translate(0.715576)"/>
</clipPath>
</defs>
</svg>
